# xmcd
#
# Track frame offsets:
# 150
# 12980
# 26181
# 39148
#
# Disc length: 696 seconds
#
#
# Revision: 0
# Processed by: cddbd v1.5.2PL0 Copyright (c) Steve Scherf et al.
# Submitted via: FreeRIP 2.40 
#
DISCID=2502b604
DTITLE=Heartbeat - Strong 
DYEAR=2006
DGENRE=Pop
TTITLE0=Strong
TTITLE1=Ear Away
TTITLE2=Strong Instrumental Version
TTITLE3=Far Away Instrumental Version
EXTD=Edel Records\n\nSong aus der Tempo Werbung
EXTT0=
EXTT1=
EXTT2=
EXTT3=
PLAYORDER=
